<?xml version="1.0" encoding="UTF-8" standalone="no"?>
<!-- Created with Inkscape (http://www.inkscape.org/) -->

<svg
   xmlns:dc="http://purl.org/dc/elements/1.1/"
   xmlns:cc="http://creativecommons.org/ns#"
   xmlns:rdf="http://www.w3.org/1999/02/22-rdf-syntax-ns#"
   xmlns:svg="http://www.w3.org/2000/svg"
   xmlns="http://www.w3.org/2000/svg"
   xmlns:sodipodi="http://sodipodi.sourceforge.net/DTD/sodipodi-0.dtd"
   xmlns:inkscape="http://www.inkscape.org/namespaces/inkscape"
   id="svg2"
   version="1.1"
   inkscape:version="0.48.2 r9819"
   width="128"
   height="128"
   sodipodi:docname="bee128.png">
  <metadata
     id="metadata8">
    <rdf:RDF>
      <cc:Work
         rdf:about="">
        <dc:format>image/svg+xml</dc:format>
        <dc:type
           rdf:resource="http://purl.org/dc/dcmitype/StillImage" />
        <dc:title></dc:title>
      </cc:Work>
    </rdf:RDF>
  </metadata>
  <defs
     id="defs6" />
  <sodipodi:namedview
     pagecolor="#ffffff"
     bordercolor="#666666"
     borderopacity="1"
     objecttolerance="10"
     gridtolerance="10"
     guidetolerance="10"
     inkscape:pageopacity="0"
     inkscape:pageshadow="2"
     inkscape:window-width="1366"
     inkscape:window-height="710"
     id="namedview4"
     showgrid="false"
     showguides="true"
     inkscape:guide-bbox="true"
     inkscape:zoom="1.1591797"
     inkscape:cx="75.160741"
     inkscape:cy="43.626609"
     inkscape:window-x="0"
     inkscape:window-y="26"
     inkscape:window-maximized="1"
     inkscape:current-layer="svg2" />
  <path
     style="fill:#aaffee;stroke:none;stroke-width:1px;stroke-linecap:butt;stroke-linejoin:miter;stroke-opacity:1"
     d="m 10.999158,37.203033 6.470092,-1.725358 2.803707,-16.390902 c 0,0 7.764111,-7.548441 8.84246,-7.548441 1.078349,0 13.155855,4.744735 13.155855,4.744735 l 10.136479,-4.744735 10.136478,7.117102 0.21567,22.860994 L 48.094355,54.672283 16.390901,62.652064 1.9410278,51.652907 4.9604044,39.144061 z"
     id="path2993"
     inkscape:connector-curvature="0" />
  <path
     style="fill:#ffff00;stroke:none"
     d="m 15.743892,71.710194 c 0,-1.725358 15.096883,-16.390902 15.096883,-16.390902 l 26.958719,1.294019 6.901433,-7.979781 3.450716,-9.920809 21.351306,-8.41112 22.429651,10.999157 12.50885,20.704297 -2.80371,18.116259 -11.86183,10.352149 -8.19546,19.410277 -30.84077,14.2342 -24.586352,-2.8037 -25.449031,-26.527382 z"
     id="path2991"
     inkscape:connector-curvature="0"
     sodipodi:nodetypes="ccccccccccccccc" />
  <path
     style="fill:#000000"
     d="m 97.625,1.5 c -0.408514,0.012325 -0.83613,0.042382 -1.28125,0.09375 -4.142034,3.0538557 -9.576487,14.229409 -10.125,20.84375 L 85.75,27.90625 78.84375,30.5625 c -3.811161,1.456326 -8.218456,3.716245 -9.78125,5.03125 L 66.21875,38 66.3125,30.75 C 66.395661,25.082986 65.918022,22.477223 64.125,18.78125 59.459479,9.1641637 51.535952,6.1417442 45.09375,11.5625 l -3.0625,2.59375 -3.0625,-2.1875 C 34.64027,8.8866004 29.294564,8.4527258 25,10.8125 20.129076,13.488972 16,21.536531 16,28.375 l 0,5.15625 -3.96875,0 c -7.7277017,0 -13.8408288,9.560884 -11.0625,17.28125 2.0147357,5.598509 5.7150898,9.841758 10.09375,11.59375 2.171605,0.868904 3.941655,1.926797 3.9375,2.34375 -0.0042,0.416953 -0.475431,3.543896 -1.03125,6.96875 -2.279809,14.047755 3.558744,26.911979 18.71875,41.3125 8.602185,8.17124 12.828137,10.49617 23.6875,13 23.543429,5.42837 47.1822,-7.3791 55.59375,-30.125 1.40552,-3.800709 3.55088,-6.99762 6.6875,-9.9375 6.47791,-6.071582 9.79106,-13.583099 8.9375,-20.3125 C 126.58154,57.676064 125.1227,54.067302 119.8125,46.34375 116.71029,41.831672 112.69428,37.610752 108.9375,34.875 105.66596,32.492601 103,30.13833 103,29.625 c 0,-0.513331 1.86187,-3.429865 4.15625,-6.46875 4.10667,-5.439246 4.19721,-5.494128 5.625,-3.34375 1.86679,2.811525 6.73715,2.95999 8.1875,0.25 1.80304,-3.369026 1.21591,-6.886421 -1.4375,-8.625 -2.32263,-1.5218443 -2.70558,-1.5167517 -5.96875,0.5 -1.9115,1.181374 -5.99732,5.54207 -9.09375,9.65625 -5.54112,7.362428 -5.699405,7.442558 -9.3125,6.84375 -6.099005,-1.010805 -5.951703,-0.843691 -5.0625,-6.46875 C 90.969996,16.425649 92.872522,10 93.625,10 c 11.90312,8.771117 16.66392,-8.8820868 4,-8.5 z M 31.21875,14.40625 c 0.22685,0.0087 0.447723,0.04202 0.65625,0.09375 3.210724,0.796468 6.814851,4.004998 8.84375,7.90625 2.421305,4.655786 1.407162,19.850889 -1.6875,25.34375 -1.316941,2.3375 -3.107528,4.246933 -3.96875,4.25 -3.676873,0.01309 -9.352251,2.326178 -12.46875,5.0625 -1.845075,1.619997 -3.516358,2.90059 -3.71875,2.84375 -0.202392,-0.05684 -2.026018,-0.559501 -4.03125,-1.09375 -4.741282,-1.263209 -7.4330447,-4.245853 -8.9375,-9.875 -1.0632347,-3.978253 -0.9841212,-4.889557 0.5625,-7.25 C 7.4416871,40.202611 9.1178317,39 10.1875,39 c 1.069667,0 4.452171,2.3625 7.53125,5.25 4.674587,4.383736 5.478493,4.837493 4.875,2.75 -1.706001,-5.901093 -2.653559,-20.256558 -1.5625,-23.5625 1.520042,-4.605771 6.784749,-9.16155 10.1875,-9.03125 z m 21.875,0 c 0.364633,-0.0017 0.715746,0.03478 1,0.125 1.093682,0.347121 3.136317,2.376142 4.5625,4.53125 5.394928,8.152286 2.112429,21.582588 -7.34375,29.90625 C 48.240417,51.672905 45.759654,53 43.84375,53 42.271185,53 41,52.7611 41,52.46875 c 0,-0.29235 0.933823,-3.32985 2.09375,-6.75 1.748355,-5.155189 2.062373,-7.871337 1.6875,-15.875 -0.248706,-5.309938 -0.05362,-10.372426 0.4375,-11.25 1.160868,-2.074355 5.322569,-4.175683 7.875,-4.1875 z m 35,20.1875 c 8.377885,-0.1565 16.90823,3.609581 23.75,10.84375 6.0696,6.41771 7.83525,9.771774 8.96875,17 1.61984,10.329619 -0.79348,16.838428 -8.75,23.5 -3.75717,3.14568 -5.29764,5.285569 -6.09375,8.40625 -1.804,7.07155 -3.08858,9.5311 -7.03125,13.59375 -6.825335,7.03304 -6.589818,7.07478 -16.15625,-2.71875 C 73.357522,95.571312 70.400332,90.563244 65.34375,75.5625 61.467416,64.063056 60.923401,56.52186 63.875,55.75 c 1.41995,-0.371326 1.96509,-1.715458 2.34375,-5.65625 0.60214,-6.266594 2.929537,-9.048625 10.71875,-12.8125 3.573924,-1.726979 7.34812,-2.616364 11.15625,-2.6875 z m 0.96875,7.4375 c -1.239388,0.0429 -2.543759,0.788955 -3.5625,2.34375 -1.177933,1.797753 -1.324024,2.99704 -0.5625,5 C 86.759978,54.168479 93,52.32882 93,47 93,43.812429 91.128147,41.959742 89.0625,42.03125 z m 8.25,3.25 c -0.334883,0.0314 -0.681039,0.118565 -1,0.3125 -2.243934,1.364357 -2.874058,5.005477 -1.21875,7 1.714944,2.066381 5.02641,1.369192 6,-1.28125 1.02679,-2.795261 -1.437071,-6.25108 -3.78125,-6.03125 z m -37.1875,1.25 C 60.673756,46.419914 61,47.047062 61,48.4375 61,50.344597 60.485463,51 58.96875,51 c -1.705874,0 -1.87219,-0.307799 -1,-1.9375 0.834783,-1.559805 1.607494,-2.419914 2.15625,-2.53125 z m 20.84375,10.875 c -1.378027,0.119663 -2.744188,0.733075 -5.375,1.9375 -4.785031,2.19066 -8.58247,5.98003 -7.28125,7.28125 0.254049,0.254049 2.897132,-0.742941 5.90625,-2.21875 6.68192,-3.277121 12.14134,-2.838201 19.03125,1.53125 4.346328,2.75636 6.292395,5.751172 10.59375,16.3125 1.70723,4.191794 2.4683,3.288957 1.6875,-2 -1.57326,-10.656923 -8.740247,-18.797567 -19.21875,-21.84375 -2.585059,-0.751497 -3.965723,-1.119663 -5.34375,-1 z M 48.9375,58.125 c 1.503322,-0.08758 1.915303,2.329766 2.375,9.625 1.043456,16.559301 6.656587,34.43658 14.71875,46.8125 2.17473,3.33834 3.96875,6.37584 3.96875,6.75 0,0.94813 -8.055516,0.73373 -10.5625,-0.28125 C 56.543414,119.85956 51.424118,108.90655 49.625,100 45.803016,81.079226 44.512784,60.561562 47.03125,58.96875 47.81926,58.470371 48.436393,58.154195 48.9375,58.125 z m -15.53125,1.65625 c 0.377729,-0.04463 0.48151,1.521604 0.1875,4.875 -0.710819,8.107389 1.87862,35.64078 3.875,41.25 0.862476,2.42329 1.404574,4.56418 1.21875,4.75 -0.708869,0.70887 -8.813396,-7.00109 -10.21875,-9.71875 -2.215929,-4.285133 -1.793648,-15.872251 1,-28.1875 1.888697,-8.325948 3.307951,-12.894372 3.9375,-12.96875 z M 20.34375,67.75 c 1.287079,-0.639468 -3.125,11.71875 -3.125,11.71875 0,0 -0.654541,-9.840935 3.125,-11.71875 z"
     id="path2989"
     inkscape:connector-curvature="0"
     sodipodi:nodetypes="scccccccscccsscssssssssssssssssssssscssssssscsssssssssssssssssssssssssssssssssssssssssssssssssssssssssssssssssssssscs" />
</svg>
