<?xml version="1.0" encoding="UTF-8" standalone="no"?>
<!-- Created with Inkscape (http://www.inkscape.org/) -->

<svg
   xmlns:dc="http://purl.org/dc/elements/1.1/"
   xmlns:cc="http://creativecommons.org/ns#"
   xmlns:rdf="http://www.w3.org/1999/02/22-rdf-syntax-ns#"
   xmlns:svg="http://www.w3.org/2000/svg"
   xmlns="http://www.w3.org/2000/svg"
   xmlns:sodipodi="http://sodipodi.sourceforge.net/DTD/sodipodi-0.dtd"
   xmlns:inkscape="http://www.inkscape.org/namespaces/inkscape"
   id="svg2"
   version="1.1"
   inkscape:version="0.48.2 r9819"
   width="128"
   height="128"
   sodipodi:docname="adflyicon.svg">
  <metadata
     id="metadata8">
    <rdf:RDF>
      <cc:Work
         rdf:about="">
        <dc:format>image/svg+xml</dc:format>
        <dc:type
           rdf:resource="http://purl.org/dc/dcmitype/StillImage" />
        <dc:title></dc:title>
      </cc:Work>
    </rdf:RDF>
  </metadata>
  <defs
     id="defs6" />
  <sodipodi:namedview
     pagecolor="#ffffff"
     bordercolor="#666666"
     borderopacity="1"
     objecttolerance="10"
     gridtolerance="10"
     guidetolerance="10"
     inkscape:pageopacity="0"
     inkscape:pageshadow="2"
     inkscape:window-width="1366"
     inkscape:window-height="710"
     id="namedview4"
     showgrid="false"
     inkscape:zoom="2"
     inkscape:cx="47.779485"
     inkscape:cy="45.08055"
     inkscape:window-x="0"
     inkscape:window-y="26"
     inkscape:window-maximized="1"
     inkscape:current-layer="g4280" />
  <g
     id="g4280"
     transform="matrix(1.0760131,0,0,1.0760131,-9.640339,-1.8965344)">
    <g
       id="g4347"
       transform="translate(-3.0739856,4.6084239)">
      <path
         sodipodi:nodetypes="cscccc"
         inkscape:connector-curvature="0"
         id="path4153"
         d="m 41.927669,69.042893 c 0,0 -14.75,-9 -12,-19.75 2.75,-10.75 16.5,3.75 16.5,3.75 -9.414766,-19.589436 0.899259,-32.182962 11.53807,-29.138538 18.75,5.5 -6.943099,36.103216 -6.943099,36.103216 z"
         style="fill:#d7f4ee;stroke:#000000;stroke-width:1.29999995;stroke-linecap:butt;stroke-linejoin:miter;stroke-miterlimit:4;stroke-opacity:1;stroke-dasharray:none" />
      <path
         style="fill:#d7f4ee;stroke:#000000;stroke-width:1.29999995;stroke-linecap:butt;stroke-linejoin:miter;stroke-miterlimit:4;stroke-opacity:1;stroke-dasharray:none"
         d="m 32.149532,72.189561 c 0,0 -19.65939,0.813736 -14.78807,-13.825351 C 20.864958,47.835653 28.75,53.75 28.75,53.75 19.335234,34.160564 27.790546,22.031716 38.429357,25.07614 57.179357,30.57614 47.75,60.25 47.75,60.25 z"
         id="path4151"
         inkscape:connector-curvature="0"
         sodipodi:nodetypes="cscccc" />
      <path
         style="fill:#ffcc00;stroke:#000000;stroke-width:1.31900001;stroke-linecap:butt;stroke-linejoin:miter;stroke-miterlimit:4;stroke-opacity:1;stroke-dasharray:none"
         d="M 30.149532,88.410526 C 26.788794,66.826948 47.658673,55.777053 61.75,52.5 74.020606,24.279763 105.22111,29.290718 113.5,40 131.48582,69.27688 112.19779,89.701853 82.493741,92.209573 58.553137,120.92431 32.167544,100.62875 30.149532,88.410526 z"
         id="path4097"
         inkscape:connector-curvature="0"
         sodipodi:nodetypes="ccccc" />
      <path
         style="fill:#000000"
         d="m 97.01078,54.012986 c -1.54815,-1.8654 -0.56799,-6.085187 1.60734,-6.919938 3.48385,-1.33688 6.00816,4.380673 3.18188,7.206952 -1.61257,1.612566 -3.29646,1.511651 -4.78922,-0.287014 z M 88.184073,47.450637 C 89.060825,44.478011 91.611306,40.822179 93.875,42.105977 97.442067,44.128951 95.312416,54.456874 91.25,54.125 86.65969,53.75 87.307322,50.423264 88.184073,47.450637 z"
         id="path3245"
         inkscape:connector-curvature="0"
         sodipodi:nodetypes="sssszasz" />
      <path
         style="fill:none;stroke:#000000;stroke-width:1.5;stroke-linecap:round;stroke-linejoin:miter;stroke-miterlimit:4;stroke-opacity:1;stroke-dasharray:none"
         d="m 74.187337,62.48171 c 0,0 10.606602,-8.838834 20.506093,-2.828427 9.8995,6.010408 13.08148,18.73833 13.08148,18.73833"
         id="path4155"
         inkscape:connector-curvature="0"
         sodipodi:nodetypes="csc" />
      <g
         id="g4157"
         transform="translate(1.5,1.75)">
        <path
           sodipodi:nodetypes="ccc"
           inkscape:connector-curvature="0"
           id="path4101"
           d="m 98.199454,52.339575 c 4.105836,5.578387 10.086686,13.192354 3.181986,14.495688 -6.010413,-2.12132 -3.181986,-14.495688 -3.181986,-14.495688 z"
           style="fill:#aaffee;fill-opacity:1;stroke:none" />
        <path
           sodipodi:nodetypes="ccc"
           inkscape:connector-curvature="0"
           id="path4103"
           d="m 101.625,58.375 c 0,0 3.125,4.75 2.5,5.5 -1.19287,-0.941381 -3.38839,-3.778704 -2.5,-5.5 z"
           style="fill:#ffffff;stroke:none" />
      </g>
      <path
         style="fill:#000000;stroke:#000000;stroke-width:1px;stroke-linecap:butt;stroke-linejoin:miter;stroke-opacity:1"
         d="m 61.428345,53.175098 c 0,0 -13.535827,23.580782 17.854135,42.630959 -3.08251,3.365379 -5.24185,4.923313 -10.935307,8.339333 0,0 -20.898146,-7.59619 -22.633979,-44.874633 5.674043,-4.015122 15.715151,-6.095659 15.715151,-6.095659 z"
         id="path4161"
         inkscape:connector-curvature="0"
         sodipodi:nodetypes="ccccc" />
      <path
         style="fill:#000000;stroke:#000000;stroke-width:0.84572583;stroke-linecap:butt;stroke-linejoin:miter;stroke-miterlimit:4;stroke-opacity:1;stroke-dasharray:none"
         d="m 89.176075,31.996014 c 0,0 7.752009,-21.885041 14.833865,-24.983358 7.08187,-3.098316 7.59996,3.248729 7.08187,6.196634 -0.51808,2.947905 -8.59433,7.956289 -11.25003,2.644889 C 97.186083,10.54278 91.258263,31.33344 91.258263,31.33344 z"
         id="path4165"
         inkscape:connector-curvature="0"
         sodipodi:nodetypes="cszscc" />
      <path
         sodipodi:nodetypes="cszscc"
         inkscape:connector-curvature="0"
         id="path4171"
         d="m 103.66753,33.685693 c 0,0 9.65618,-17.969385 17.38546,-18.071517 7.7293,-0.102128 5.73969,5.947239 4.11654,8.461989 -1.62313,2.514753 -11.01103,3.99027 -11.39349,-1.935727 -0.38245,-5.925996 -7.93251,11.744081 -7.93251,11.744081 z"
         style="fill:#000000;stroke:#000000;stroke-width:0.84572583;stroke-linecap:butt;stroke-linejoin:miter;stroke-miterlimit:4;stroke-opacity:1;stroke-dasharray:none" />
      <path
         sodipodi:nodetypes="ccccc"
         inkscape:connector-curvature="0"
         id="path4326"
         d="m 39.249383,65.168166 c 0,0 -0.885604,23.252205 18.675578,41.316654 5.296209,0.73676 -7.83886,0.45933 -13.28547,-2.21985 0,0 -11.976439,-7.222906 -13.547983,-28.729641 2.552559,-6.479451 8.157875,-10.367163 8.157875,-10.367163 z"
         style="fill:#000000;stroke:#000000;stroke-width:1px;stroke-linecap:butt;stroke-linejoin:miter;stroke-opacity:1" />
      <g
         id="g4234"
         transform="matrix(0.68024246,0,0,0.68024246,19.715945,24.474799)">
        <path
           sodipodi:nodetypes="cscsc"
           inkscape:connector-curvature="0"
           id="path4173"
           d="m 29,96.5 c 0,0 -12,-4.5 -7.5,-13.5 4.5,-9 20,7.5 20,7.5 0,0 20.175756,5.644812 10,13.5 C 43.949747,109.82843 29,96.5 29,96.5 z"
           style="fill:#ffe680;stroke:#000000;stroke-width:1px;stroke-linecap:butt;stroke-linejoin:miter;stroke-opacity:1" />
        <path
           sodipodi:nodetypes="ccssc"
           inkscape:connector-curvature="0"
           id="path4175"
           d="M 28.5,94 35,87 c 0,0 6.888729,4.534961 7.1875,6.4375 0.264651,1.685264 -3.12804,6.79669 -3.8125,6.9375 C 35.294055,101.00881 28.5,94 28.5,94 z"
           style="fill:#fff6d5;stroke:#000000;stroke-width:1px;stroke-linecap:butt;stroke-linejoin:miter;stroke-opacity:1" />
        <rect
           transform="matrix(0.95577901,0.29408585,-0.29408585,0.95577901,0,0)"
           y="78.024139"
           x="70.492775"
           height="1.0625"
           width="1.0625"
           id="rect4181"
           style="fill:#fff6d5;fill-opacity:1;stroke:none" />
        <rect
           style="fill:#fff6d5;fill-opacity:1;stroke:none"
           id="rect4183"
           width="1.0625"
           height="1.0625"
           x="71.885094"
           y="83.611771"
           transform="matrix(0.95577901,0.29408585,-0.29408585,0.95577901,0,0)" />
        <rect
           transform="matrix(0.95577901,0.29408585,-0.29408585,0.95577901,0,0)"
           y="78.874229"
           x="73.89315"
           height="1.0625"
           width="1.0625"
           id="rect4185"
           style="fill:#fff6d5;fill-opacity:1;stroke:none" />
        <rect
           style="fill:#fff6d5;fill-opacity:1;stroke:none"
           id="rect4187"
           width="1.0625"
           height="1.0625"
           x="73.929909"
           y="82.394066"
           transform="matrix(0.95577901,0.29408585,-0.29408585,0.95577901,0,0)" />
        <rect
           transform="matrix(0.95577901,0.29408585,-0.29408585,0.95577901,0,0)"
           y="81.948349"
           x="70.065437"
           height="1.0625"
           width="1.0625"
           id="rect4189"
           style="fill:#fff6d5;fill-opacity:1;stroke:none" />
        <rect
           style="fill:#fff6d5;fill-opacity:1;stroke:none"
           id="rect4191"
           width="1.0625"
           height="1.0625"
           x="71.751831"
           y="79.990837"
           transform="matrix(0.95577901,0.29408585,-0.29408585,0.95577901,0,0)" />
        <rect
           transform="matrix(0.95577901,0.29408585,-0.29408585,0.95577901,0,0)"
           y="74.357254"
           x="53.081974"
           height="1.0625"
           width="1.0625"
           id="rect4193"
           style="fill:#fff6d5;fill-opacity:1;stroke:none" />
        <rect
           style="fill:#fff6d5;fill-opacity:1;stroke:none"
           id="rect4195"
           width="1.0625"
           height="1.0625"
           x="48.624733"
           y="72.197563"
           transform="matrix(0.95577901,0.29408585,-0.29408585,0.95577901,0,0)" />
        <rect
           transform="matrix(0.95577901,0.29408585,-0.29408585,0.95577901,0,0)"
           y="76.705345"
           x="47.788425"
           height="1.0625"
           width="1.0625"
           id="rect4197"
           style="fill:#fff6d5;fill-opacity:1;stroke:none" />
        <rect
           style="fill:#fff6d5;fill-opacity:1;stroke:none"
           id="rect4199"
           width="1.0625"
           height="1.0625"
           x="50.646572"
           y="77.918449"
           transform="matrix(0.95577901,0.29408585,-0.29408585,0.95577901,0,0)" />
        <rect
           transform="matrix(0.95577901,0.29408585,-0.29408585,0.95577901,0,0)"
           y="75.859848"
           x="49.686199"
           height="1.0625"
           width="1.0625"
           id="rect4201"
           style="fill:#fff6d5;fill-opacity:1;stroke:none" />
        <rect
           style="fill:#fff6d5;fill-opacity:1;stroke:none"
           id="rect4203"
           width="1.0625"
           height="1.0625"
           x="51.510452"
           y="74.775406"
           transform="matrix(0.95577901,0.29408585,-0.29408585,0.95577901,0,0)" />
      </g>
      <g
         transform="matrix(1.5005398e-4,0.68024245,-0.68024245,1.5005398e-4,107.45985,64.265925)"
         id="g4250">
        <path
           style="fill:#ffe680;stroke:#000000;stroke-width:1px;stroke-linecap:butt;stroke-linejoin:miter;stroke-opacity:1"
           d="m 29,96.5 c 0,0 -15.688258,-7.651716 -7.5,-13.5 8.749393,-6.249063 20,7.5 20,7.5 0,0 17.877581,5.997858 6.906622,12.52705 C 40.210154,107.90504 29,96.5 29,96.5 z"
           id="path4252"
           inkscape:connector-curvature="0"
           sodipodi:nodetypes="cscsc" />
        <path
           style="fill:#fff6d5;stroke:#000000;stroke-width:1px;stroke-linecap:butt;stroke-linejoin:miter;stroke-opacity:1"
           d="M 28.5,94 35,87 c 0,0 6.888729,4.534961 7.1875,6.4375 0.264651,1.685264 -3.12804,6.79669 -3.8125,6.9375 C 35.294055,101.00881 28.5,94 28.5,94 z"
           id="path4254"
           inkscape:connector-curvature="0"
           sodipodi:nodetypes="ccssc" />
        <rect
           style="fill:#fff6d5;fill-opacity:1;stroke:none"
           id="rect4256"
           width="1.0625"
           height="1.0625"
           x="70.492775"
           y="78.024139"
           transform="matrix(0.95577901,0.29408585,-0.29408585,0.95577901,0,0)" />
        <rect
           transform="matrix(0.95577901,0.29408585,-0.29408585,0.95577901,0,0)"
           y="83.611771"
           x="71.885094"
           height="1.0625"
           width="1.0625"
           id="rect4258"
           style="fill:#fff6d5;fill-opacity:1;stroke:none" />
        <rect
           style="fill:#fff6d5;fill-opacity:1;stroke:none"
           id="rect4260"
           width="1.0625"
           height="1.0625"
           x="73.89315"
           y="78.874229"
           transform="matrix(0.95577901,0.29408585,-0.29408585,0.95577901,0,0)" />
        <rect
           transform="matrix(0.95577901,0.29408585,-0.29408585,0.95577901,0,0)"
           y="82.394066"
           x="73.929909"
           height="1.0625"
           width="1.0625"
           id="rect4262"
           style="fill:#fff6d5;fill-opacity:1;stroke:none" />
        <rect
           style="fill:#fff6d5;fill-opacity:1;stroke:none"
           id="rect4264"
           width="1.0625"
           height="1.0625"
           x="70.065437"
           y="81.948349"
           transform="matrix(0.95577901,0.29408585,-0.29408585,0.95577901,0,0)" />
        <rect
           transform="matrix(0.95577901,0.29408585,-0.29408585,0.95577901,0,0)"
           y="79.990837"
           x="71.751831"
           height="1.0625"
           width="1.0625"
           id="rect4266"
           style="fill:#fff6d5;fill-opacity:1;stroke:none" />
        <rect
           style="fill:#fff6d5;fill-opacity:1;stroke:none"
           id="rect4268"
           width="1.0625"
           height="1.0625"
           x="53.081974"
           y="74.357254"
           transform="matrix(0.95577901,0.29408585,-0.29408585,0.95577901,0,0)" />
        <rect
           transform="matrix(0.95577901,0.29408585,-0.29408585,0.95577901,0,0)"
           y="72.197563"
           x="48.624733"
           height="1.0625"
           width="1.0625"
           id="rect4270"
           style="fill:#fff6d5;fill-opacity:1;stroke:none" />
        <rect
           style="fill:#fff6d5;fill-opacity:1;stroke:none"
           id="rect4272"
           width="1.0625"
           height="1.0625"
           x="47.788425"
           y="76.705345"
           transform="matrix(0.95577901,0.29408585,-0.29408585,0.95577901,0,0)" />
        <rect
           transform="matrix(0.95577901,0.29408585,-0.29408585,0.95577901,0,0)"
           y="77.918449"
           x="50.646572"
           height="1.0625"
           width="1.0625"
           id="rect4274"
           style="fill:#fff6d5;fill-opacity:1;stroke:none" />
        <rect
           style="fill:#fff6d5;fill-opacity:1;stroke:none"
           id="rect4276"
           width="1.0625"
           height="1.0625"
           x="49.686199"
           y="75.859848"
           transform="matrix(0.95577901,0.29408585,-0.29408585,0.95577901,0,0)" />
        <rect
           transform="matrix(0.95577901,0.29408585,-0.29408585,0.95577901,0,0)"
           y="74.775406"
           x="51.510452"
           height="1.0625"
           width="1.0625"
           id="rect4278"
           style="fill:#fff6d5;fill-opacity:1;stroke:none" />
      </g>
    </g>
  </g>
</svg>
